<?xml version="1.0" encoding="utf-8"?>
<!-- Generator: Adobe Illustrator 16.0.0, SVG Export Plug-In . SVG Version: 6.00 Build 0)  -->
<!DOCTYPE svg PUBLIC "-//W3C//DTD SVG 1.1//EN" "http://www.w3.org/Graphics/SVG/1.1/DTD/svg11.dtd">
<svg version="1.1" id="Ebene_1" xmlns="http://www.w3.org/2000/svg" xmlns:xlink="http://www.w3.org/1999/xlink" x="0px" y="0px"
	 width="884.41px" height="892.91px" viewBox="0 0 884.41 892.91" enable-background="new 0 0 884.41 892.91" xml:space="preserve">
<g>
	<g>
		<path fill="none" stroke="#FFFFFF" stroke-miterlimit="10" d="M519.97,134.774c0.69-3.021,1.23-5.382,1.813-7.904
			c2.279,1.929,4.107,3.801,6.234,5.207c6.586,4.359,7.137,4.024,10.148-3.223c0.511-1.23,3.186-2.829,4.002-2.44
			c2.711,1.277,5.434,3.028,7.409,5.26c3.944,4.444,8.155,8.932,10.857,14.128c3.535,6.795,5.716,14.292,8.573,21.732
			c-4.571,0.46-8.27,0.993-11.976,1.068c-0.747,0.014-1.457-1.791-2.322-2.601c-2.93-2.744-5.918-5.419-10.08-7.718
			c2.634,6.035-0.182,10.448-1.552,15.536c-1.3,4.845,1.61,10.955,3.122,16.38c0.891,3.21,2.288,6.41,4.111,9.184
			c2.225,3.386,5.083,6.365,7.764,9.437c1.878,2.149,3.911,4.16,6.357,6.727c-2.686,0.189-4.281,0.304-5.885,0.419
			c0.407,1.731,0.278,3.91,1.3,5.106c4.555,5.324,6.125,10.571,4.189,17.896c-1.072,4.048,2.147,9.225,3.396,13.766
			c-5.809-1.399-5.302,3.459-5.374,8.21c-0.063,4.69-0.587,9.374-0.916,14.141c3.231-1.301,6.123-1.727,7.846-3.373
			c1.541-1.476,1.794-4.3,3.489-8.896c2.397,14.049,12.731,13.211,21.356,15.826c1.435-8.274-2.064-13.265-9.507-14.397
			c-6.45-0.979-7.354-2.51-5.45-8.964c1.194-4.027,2.335-8.081,3.369-12.157c1.422-5.567,7.277-9.25,13.471-6.908
			c5.403,2.044,10.135,5.895,14.28,8.416c-0.437-8.387-4.217-14.799-10.063-17.03c-6.007-2.29-13.631,3.724-19.902,11.449
			c-4.527-2.379-6.072-10.786-2.205-14.124c9.481-8.203,19.6-11.164,29.259,0.892c11.14,13.891,15.207,29.22,14.243,46.485
			c-0.471,8.427-0.245,16.921-1.123,25.3c-2.008,19.083-9.441,35.822-23.821,48.814c-3.8,3.436-8.954,5.484-13.678,7.781
			c-4.473,2.183-7.299,5.072-8.431,10.221c-0.694,3.153-3.36,5.876-5.178,8.86c4.743,0.132,4.467,4.426,4.494,8.839
			c0.042,8.419-2.381,15.971-6.67,23.182c-1.068,1.797-0.654,4.718-0.316,7.028c0.282,1.926,1.443,3.728,1.545,3.974
			c-3.213,3.542-5.114,6.417-7.708,8.366c-10.077,7.566-10.132,21.294-18.861,29.889c-3.481,3.428-2.601,10.315-8.102,13.435
			c-3.884,2.202-7.117,5.526-10.855,8.036c-13.667,9.169-23.629,22.365-35.834,32.948c-13.251,11.484-29.355,18.931-48.202,15.927
			c-2.108-0.337-4.76,0.127-6.6,1.191c-10.271,5.958-19.883,5.184-31.229,1.344c-13.759-4.656-24.097-13.069-34.312-22.331
			c-3.974-3.601-7.714-7.477-11.302-11.463c-0.69-0.771-0.608-3.629-0.135-3.836c5.957-2.643,13.082-8.135,17.846-6.572
			c5.649,1.849,10.488,0.151,15.6,0.905c7.73,1.145,9.075-0.789,8.099-8.487c-0.536-4.247,0.102-7.379,5.595-6.026
			c0.609,0.148,1.412,0.414,1.865,0.161c6.399-3.58,12.766-7.224,19.118-10.888c3.048-1.762,5.866-4.647,9.104-5.215
			c15.265-2.696,30.621-4.893,45.995-6.933c2.926-0.385,6.056,0.746,8.609,1.111c-1.507-5.189-2.741-10.005-4.396-14.667
			c-0.342-0.967-2.303-1.298-3.434-2.051c-1.474-0.983-2.795-2.207-4.3-3.126c-3.033-1.848-6.214-5.143-9.201-5.007
			c-6.627,0.311-13.2,2.264-19.745,3.755c-4.061,0.925-8.015,2.165-9.425-3.539c-4.956,2.433-11.328,0.21-12.951-4.281
			c5.636-1.946,4.973-1.598,1.972-7.281c-1.182-2.236,1.081-6.507,2.246-9.678c0.528-1.442,2.453-2.311,3.31-3.702
			c4.61-7.549,2.759-10.596-5.644-11.812c-11.302-1.636-18.343,4.257-24.432,12.278c-2.774,3.656-10.985,6.285-16.65,4.784
			c-17.32-4.589-25.314-20.374-17.523-36.838c4.406-9.309,3.521-18.804,4.524-28.345c0.95-8.998-1.176-17.629-1.578-26.429
			c-0.347-7.663,0.713-15.393,1.179-23.597c-9.444-4.595-18.384-12.272-30.676-10.455c-2.834,0.422-7.436-0.695-3.95,5.447
			c-1.675,0.413-3.212,0.93-4.79,1.143c-10.167,1.358-20.678,1.469-30.42,4.276c-11.413,3.292-16.684-4.839-23.711-8.504
			c3.57-6.248,6.629-11.606,9.69-16.964c-0.543-0.312-1.088-0.623-1.628-0.933c-0.885,0.614-1.947,1.911-2.63,1.736
			c-5.607-1.426-10.731-9.495-11.196-15.356c-0.622-7.728-2.635-15.343-3.163-23.067c-0.365-5.369,0.77-10.84,1.349-17.576
			c-5.542-4.105-8.025-11.271-6.507-20.213c1.691-9.98,3.232-19.914,9.167-28.544c0.977-1.418,1.074-3.438,1.729-5.702
			c-1.842,0.247-2.919,0.391-6.277,0.844c5.419-9.447,8.853-18.624,14.955-25.394c13.228-14.676,26.973-29.13,42.065-41.823
			c20.956-17.625,44.868-29.816,73.013-32.062c14.741-1.179,29.092,0.227,43.271,3.924c20.47,5.341,40.48,11.906,58.089,24.098
			c3.235,2.242,5.889,5.327,8.724,7.945C500.425,104.631,510.347,128.884,519.97,134.774z M444.615,271.446
			c-0.229-0.592-0.46-1.186-0.694-1.778c5.629-2.097,11.259-4.196,17.838-6.643c-1.984-1.389-2.875-2.459-3.943-2.692
			c-12.048-2.612-23.963-5.271-36.104,0.46c-6.153,2.907-13.029,4.293-20.148,6.55c-3.157,4.434-7.089,9.94-11.022,15.455
			c0.075,0.12,0.155,0.405,0.298,0.442c1.196,0.301,2.396,0.673,3.619,0.812c7.788,0.882,15.573,1.446,20.351,9.326
			c0.602,0.997,4.893,1.003,6.428-0.055c3.93-2.72,7.352-6.22,10.845-9.539c4.466-4.254,14.513-8.332,21.154-7.724
			c-14.731,4.062-23.598,13.255-30.323,24.949c3.972-0.505,7.495-0.956,11.529-1.469c0.485-7.048,3.791-12.856,11.438-15.8
			c0.501,9.593,3.211,14.925,8.602,15.81c12.753,2.097,14.683-7.069,15.4-14.962c8.32,2.528,16.035,4.994,23.842,7.109
			c1.229,0.332,2.88-0.909,4.34-1.419c-0.696-1.328-1.203-2.804-2.119-3.959c-6.07-7.657-15.725-8.318-23.771-12.18
			C463.2,269.831,454.05,269.826,444.615,271.446z M569.207,341.472c-6.062,9.437-5.619,13.404,1.216,15.863
			C569.996,351.761,569.6,346.619,569.207,341.472z"/>
		<path fill="none" stroke="#FFFFFF" stroke-miterlimit="10" d="M448.775,653.094c-5.76-1.793-11.377-2.54-15.871-5.19
			c-5.074-2.987-10.317-6.94-13.403-11.791c-5.963-9.393-10.704-19.61-15.513-29.687c-4.563-9.562,0.345-20.96,10.191-24.98
			c48.474-19.813,90.525-48.777,124.175-89.062c20.979-25.121,35.922-53.494,41.114-86.353c0.307-1.938,2.103-3.642,3.204-5.453
			c1.687,1.821,4.859,3.687,4.812,5.46c-0.278,10.031-0.16,20.303-2.317,30.01c-8.515,38.268-26.658,72.624-44.676,107.024
			c-9.285,17.717-17.493,35.994-26.428,53.899c-5.351,10.71-11.324,21.117-16.656,31.836c-1.638,3.29-1.312,7.649-3.225,10.678
			c-5.157,8.156-10.894,15.959-16.646,23.725c-17.943,24.233-36.042,48.353-53.999,72.571c-8.278,11.17-16.238,22.573-24.665,33.623
			c-1.345,1.756-4.393,2.217-6.65,3.271c-0.555-2.263-1.804-4.629-1.536-6.796c1.877-15.024,4.239-29.993,6.098-45.02
			c0.898-7.306,1.192-14.693,1.506-22.053c0.44-10.183,4.124-18.225,13.405-23.463c10.983-6.201,21.708-12.856,32.533-19.332
			C445.615,655.183,446.947,654.269,448.775,653.094z"/>
		<path fill="none" stroke="#FFFFFF" stroke-miterlimit="10" d="M313.566,325.179c0.833,0.146,1.67,0.244,2.491,0.436
			c10.958,2.599,13.499,1.585,19.253-7.907c0.962-1.588,1.627-3.354,2.77-5.75c1.473,0.969,3.169,1.534,3.97,2.709
			c2.564,3.764,5.768,5.058,10.241,4.111c4.538-0.962,6.68,2.247,6.28,5.805c-0.781,7.022-3.007,13.878-3.851,20.899
			c-1.237,10.338-2.204,20.745-2.532,31.145c-0.361,11.529-0.131,23.09,0.335,34.619c0.359,8.895-3.986,15.053-9.422,21.469
			c-3.985,4.704-7.481,10.549-5.289,17.684c2.399,7.806,4.703,15.641,6.67,23.559c0.413,1.642-0.818,3.695-1.294,5.56
			c-1.876-0.6-4.667-0.614-5.471-1.892c-4.331-6.855-8.974-13.701-11.985-21.164c-4.227-10.481-6.673-21.497-5.692-33.116
			c0.31-3.713-0.14-8.281-5.112-9.876c-0.37-0.117-0.812-0.462-0.937-0.804c-2.547-7.007-6.04-13.859-7.304-21.097
			c-1.438-8.265-4.568-14.698-11.299-19.695c-6.47-4.809-7.278-12.532-8.624-19.674c-0.256-1.369,2.374-3.87,4.204-4.822
			c1.136-0.585,3.589,0.348,4.891,1.341c2.155,1.639,3.824,3.906,5.76,5.852c3.841,3.869,7.811,4.913,12.281-0.014
			c-2.645-3.826-6.52-7.927-0.564-12.592c-6.123-3.997-11.204-8.208-14.482-14.817c5.617-1.999,11.144,4.728,14.767-2.094
			L313.566,325.179z"/>
		<path fill="none" stroke="#FFFFFF" stroke-miterlimit="10" d="M417.99,432.013c3.677-2.284,10.313,0.907,12.029,4.521
			c1.456,3.065,4.751,5.257,7.2,7.805c-3.732,3.089-3.732,3.089-9.119-0.729c-2.102,2.213-4.217,4.446-6.136,6.464
			c-1.357-6.545-2.574-12.387-3.788-18.228L417.99,432.013z"/>
		<path fill="none" stroke="#FFFFFF" stroke-miterlimit="10" d="M395.718,454.664c0.763-2.146,1.528-4.304,2.744-7.716
			c3.886,6.794,7.643,3.683,11.583,2.075c1.641-0.669,3.76-0.178,5.663-0.216c-0.946,1.86-1.533,4.958-2.902,5.354
			c-5.119,1.478-10.493,2.072-15.77,2.995C396.596,456.328,396.158,455.498,395.718,454.664z"/>
		<path fill="none" stroke="#FFFFFF" stroke-miterlimit="10" d="M380.501,759.256"/>
		<path fill="none" stroke="#FFFFFF" stroke-miterlimit="10" d="M418.177,431.846c-0.413,0.063-1.118,0.296-1.192,0.167
			c-2.735-4.703-9.408-7.263-8.032-15.129c1.304,1.872,2.166,3.104,3.233,4.632c2.394-2.592,4.528-4.902,6.657-7.206
			c0.601,0.135,1.196,0.273,1.79,0.411c-0.238,2.785-0.333,5.597-0.763,8.356c-0.467,3.011-1.244,5.964-1.88,8.944
			C417.99,432.013,418.177,431.846,418.177,431.846z"/>
		<path fill="none" stroke="#FFFFFF" stroke-miterlimit="10" d="M413.015,401.607c-0.99,1.977-1.747,4.14-3.071,5.862
			c-0.64,0.838-2.348,0.849-3.578,1.234c-0.376-1.457-1.511-3.707-0.984-4.214c1.865-1.776,4.304-2.953,6.521-4.36
			C412.273,400.622,412.646,401.114,413.015,401.607z"/>
		<path fill="none" stroke="#FFFFFF" stroke-miterlimit="10" d="M571.786,223.609c-1.845-5.457-3.694-10.914-5.547-16.368
			c0.607-0.263,1.216-0.526,1.832-0.786c4.308,4.469,2.406,11.492,5.487,16.465C572.968,223.149,572.375,223.379,571.786,223.609z"
			/>
		<path fill="none" stroke="#FFFFFF" stroke-miterlimit="10" d="M313.621,325.055c-1.372-2.075-2.764-4.133-4.116-6.22
			c-2.189-3.39-2.176-3.395,2.386-7.336c0.608,4.879,1.155,9.258,1.69,13.656C313.566,325.179,313.621,325.055,313.621,325.055z"/>
	</g>
	<path d="M165.673,449.224c0-241.525,123.758-437.32,276.42-437.32s276.42,195.795,276.42,437.32
		c0,241.529-123.758,437.328-276.42,437.328S165.673,690.753,165.673,449.224z"/>
	<g>
		<path fill="#FFFFFF" d="M529.373,184.772c0.727-3.186,1.296-5.677,1.912-8.336c2.404,2.035,4.331,4.009,6.577,5.492
			c6.944,4.597,7.527,4.245,10.701-3.399c0.541-1.298,3.36-2.984,4.222-2.574c2.858,1.348,5.732,3.193,7.814,5.548
			c4.162,4.688,8.603,9.42,11.452,14.902c3.728,7.167,6.028,15.074,9.042,22.921c-4.82,0.485-8.721,1.047-12.63,1.126
			c-0.79,0.015-1.537-1.889-2.448-2.744c-3.091-2.894-6.244-5.716-10.634-8.14c2.777,6.365-0.19,11.021-1.636,16.387
			c-1.37,5.11,1.698,11.554,3.292,17.276c0.939,3.387,2.413,6.762,4.338,9.687c2.345,3.57,5.361,6.713,8.188,9.953
			c1.981,2.266,4.126,4.388,6.706,7.095c-2.833,0.2-4.518,0.321-6.208,0.442c0.429,1.825,0.293,4.123,1.372,5.384
			c4.804,5.616,6.461,11.151,4.418,18.877c-1.132,4.269,2.265,9.729,3.584,14.519c-6.128-1.476-5.594,3.649-5.67,8.659
			c-0.067,4.946-0.618,9.887-0.967,14.916c3.409-1.373,6.459-1.822,8.276-3.558c1.625-1.558,1.894-4.536,3.679-9.383
			c2.529,14.818,13.429,13.934,22.526,16.692c1.515-8.727-2.179-13.991-10.026-15.186c-6.805-1.032-7.757-2.646-5.75-9.455
			c1.263-4.247,2.464-8.523,3.555-12.821c1.499-5.872,7.675-9.757,14.207-7.286c5.699,2.156,10.691,6.217,15.064,8.876
			c-0.462-8.846-4.449-15.609-10.617-17.962c-6.336-2.416-14.376,3.927-20.99,12.076c-4.775-2.51-6.404-11.377-2.326-14.897
			c10-8.652,20.674-11.775,30.86,0.941c11.748,14.65,16.039,30.818,15.022,49.029c-0.496,8.888-0.26,17.848-1.185,26.685
			c-2.117,20.128-9.958,37.783-25.126,51.486c-4.006,3.623-9.443,5.785-14.425,8.207c-4.72,2.303-7.699,5.35-8.893,10.783
			c-0.732,3.323-3.544,6.197-5.46,9.343c5.002,0.14,4.711,4.669,4.738,9.321c0.045,8.883-2.51,16.849-7.035,24.452
			c-1.127,1.897-0.688,4.975-0.333,7.415c0.3,2.028,1.523,3.93,1.629,4.189c-3.388,3.734-5.395,6.768-8.13,8.825
			c-10.628,7.979-10.685,22.458-19.894,31.523c-3.671,3.613-2.742,10.877-8.544,14.167c-4.098,2.324-7.508,5.828-11.451,8.477
			c-14.414,9.672-24.921,23.59-37.795,34.753c-13.975,12.109-30.962,19.964-50.838,16.8c-2.225-0.357-5.022,0.133-6.961,1.256
			c-10.834,6.281-20.972,5.467-32.941,1.414c-14.51-4.91-25.415-13.785-36.189-23.554c-4.19-3.797-8.135-7.886-11.919-12.088
			c-0.728-0.814-0.642-3.829-0.143-4.046c6.283-2.789,13.798-8.58,18.823-6.935c5.959,1.95,11.062,0.161,16.454,0.959
			c8.152,1.205,9.573-0.834,8.542-8.954c-0.566-4.48,0.109-7.784,5.901-6.355c0.642,0.156,1.49,0.438,1.968,0.169
			c6.75-3.773,13.464-7.617,20.164-11.482c3.215-1.861,6.187-4.901,9.602-5.503c16.1-2.841,32.296-5.16,48.512-7.311
			c3.086-0.406,6.388,0.789,9.081,1.171c-1.592-5.473-2.892-10.552-4.638-15.468c-0.361-1.019-2.43-1.371-3.624-2.165
			c-1.554-1.036-2.946-2.328-4.534-3.295c-3.199-1.95-6.554-5.427-9.705-5.285c-6.988,0.331-13.922,2.392-20.824,3.964
			c-4.284,0.976-8.453,2.284-9.941-3.731c-5.226,2.564-11.946,0.219-13.661-4.515c5.944-2.052,5.248-1.687,2.082-7.682
			c-1.248-2.359,1.14-6.864,2.368-10.209c0.557-1.518,2.588-2.437,3.491-3.905c4.861-7.959,2.908-11.174-5.955-12.456
			c-11.919-1.726-19.346,4.49-25.769,12.95c-2.927,3.856-11.587,6.625-17.562,5.047c-18.268-4.84-26.697-21.489-18.482-38.856
			c4.649-9.818,3.714-19.833,4.773-29.896c1.001-9.491-1.24-18.595-1.666-27.876c-0.365-8.082,0.752-16.235,1.245-24.889
			c-9.963-4.846-19.39-12.943-32.354-11.026c-2.992,0.445-7.844-0.733-4.167,5.745c-1.768,0.435-3.388,0.98-5.053,1.206
			c-10.721,1.432-21.808,1.549-32.085,4.511c-12.034,3.471-17.596-5.104-25.009-8.97c3.767-6.59,6.995-12.242,10.222-17.893
			c-0.574-0.329-1.148-0.658-1.718-0.985c-0.935,0.648-2.052,2.017-2.774,1.831c-5.912-1.504-11.318-10.014-11.807-16.196
			c-0.658-8.15-2.781-16.183-3.337-24.329c-0.385-5.663,0.813-11.433,1.423-18.539c-5.847-4.33-8.465-11.888-6.864-21.319
			c1.784-10.527,3.409-21.004,9.669-30.106c1.028-1.497,1.13-3.627,1.822-6.014c-1.943,0.26-3.078,0.413-6.62,0.891
			c5.715-9.964,9.337-19.644,15.772-26.784c13.952-15.479,28.449-30.725,44.37-44.112c22.102-18.589,47.321-31.448,77.007-33.818
			c15.549-1.243,30.686,0.239,45.64,4.138c21.591,5.634,42.696,12.559,61.269,25.417c3.415,2.366,6.212,5.62,9.202,8.381
			C508.758,152.979,519.225,178.559,529.373,184.772z M449.894,328.925c-0.24-0.625-0.485-1.252-0.732-1.875
			c5.938-2.212,11.875-4.426,18.815-7.006c-2.094-1.465-3.033-2.593-4.16-2.839c-12.709-2.755-25.276-5.561-38.08,0.485
			c-6.489,3.066-13.743,4.528-21.25,6.909c-3.331,4.676-7.479,10.485-11.626,16.301c0.078,0.125,0.163,0.427,0.312,0.466
			c1.262,0.316,2.528,0.709,3.817,0.856c8.213,0.93,16.426,1.525,21.464,9.836c0.637,1.051,5.161,1.058,6.78-0.058
			c4.146-2.869,7.755-6.56,11.44-10.06c4.711-4.487,15.307-8.788,22.31-8.147c-15.534,4.285-24.889,13.981-31.981,26.314
			c4.189-0.533,7.907-1.009,12.16-1.549c0.513-7.434,4-13.561,12.062-16.666c0.528,10.119,3.388,15.742,9.072,16.676
			c13.454,2.212,15.488-7.455,16.244-15.781c8.776,2.667,16.911,5.268,25.147,7.499c1.296,0.349,3.037-0.958,4.575-1.497
			c-0.734-1.4-1.267-2.958-2.232-4.177c-6.404-8.075-16.587-8.773-25.071-12.846C469.496,327.22,459.846,327.215,449.894,328.925z
			 M581.306,402.782c-6.396,9.955-5.928,14.14,1.281,16.731C582.137,413.635,581.719,408.211,581.306,402.782z"/>
		<path fill="#FFFFFF" d="M454.282,731.458c-6.075-1.89-12.001-2.677-16.74-5.474c-5.351-3.15-10.881-7.319-14.135-12.436
			c-6.29-9.906-11.291-20.686-16.364-31.314c-4.813-10.083,0.365-22.106,10.748-26.345c51.127-20.9,95.481-51.448,130.972-93.939
			c22.128-26.496,37.889-56.422,43.366-91.075c0.321-2.048,2.217-3.842,3.377-5.752c1.782,1.919,5.125,3.886,5.079,5.756
			c-0.296,10.585-0.169,21.418-2.444,31.654c-8.983,40.361-28.119,76.601-47.122,112.884c-9.794,18.687-18.45,37.961-27.876,56.848
			c-5.643,11.297-11.942,22.272-17.565,33.577c-1.727,3.473-1.385,8.067-3.402,11.266c-5.438,8.601-11.491,16.831-17.558,25.022
			c-18.925,25.557-38.014,50.999-56.951,76.543c-8.733,11.78-17.128,23.807-26.015,35.464c-1.42,1.852-4.635,2.337-7.015,3.451
			c-0.585-2.387-1.904-4.886-1.621-7.17c1.979-15.845,4.473-31.633,6.432-47.484c0.949-7.704,1.258-15.495,1.589-23.261
			c0.463-10.739,4.348-19.222,14.137-24.746c11.585-6.541,22.897-13.559,34.315-20.39
			C450.949,733.661,452.353,732.699,454.282,731.458z"/>
		<path fill="#FFFFFF" d="M311.67,385.598c0.879,0.154,1.763,0.257,2.626,0.46c11.56,2.742,14.24,1.672,20.309-8.339
			c1.015-1.675,1.716-3.539,2.921-6.064c1.554,1.021,3.344,1.617,4.19,2.856c2.702,3.972,6.082,5.336,10.802,4.338
			c4.786-1.016,7.043,2.369,6.623,6.122c-0.823,7.406-3.173,14.637-4.062,22.042c-1.305,10.906-2.325,21.881-2.67,32.851
			c-0.38,12.158-0.137,24.353,0.354,36.51c0.378,9.383-4.206,15.879-9.938,22.646c-4.204,4.96-7.892,11.127-5.579,18.652
			c2.528,8.231,4.96,16.495,7.035,24.85c0.436,1.73-0.864,3.894-1.364,5.863c-1.98-0.633-4.922-0.65-5.771-1.995
			c-4.568-7.231-9.464-14.454-12.641-22.325c-4.458-11.051-7.037-22.673-6.004-34.926c0.327-3.917-0.146-8.736-5.392-10.418
			c-0.39-0.125-0.855-0.486-0.989-0.847c-2.685-7.39-6.372-14.617-7.702-22.251c-1.519-8.719-4.818-15.505-11.919-20.774
			c-6.824-5.073-7.677-13.217-9.095-20.75c-0.269-1.443,2.506-4.083,4.433-5.086c1.198-0.617,3.788,0.366,5.161,1.414
			c2.271,1.73,4.032,4.121,6.074,6.174c4.052,4.078,8.239,5.181,12.955-0.016c-2.791-4.036-6.878-8.36-0.595-13.282
			c-6.458-4.215-11.817-8.657-15.276-15.628c5.927-2.108,11.755,4.987,15.575-2.208L311.67,385.598z"/>
		<path fill="#FFFFFF" d="M421.811,498.28c3.879-2.408,10.878,0.952,12.689,4.769c1.535,3.233,5.011,5.545,7.592,8.229
			c-3.937,3.259-3.937,3.259-9.619-0.767c-2.216,2.333-4.447,4.688-6.471,6.815c-1.431-6.906-2.712-13.067-3.996-19.224
			L421.811,498.28z"/>
		<path fill="#FFFFFF" d="M398.321,522.167c0.805-2.26,1.611-4.535,2.894-8.139c4.099,7.168,8.061,3.888,12.218,2.191
			c1.729-0.707,3.965-0.188,5.97-0.229c-0.997,1.961-1.616,5.229-3.058,5.646c-5.401,1.56-11.069,2.187-16.635,3.157
			C399.246,523.922,398.784,523.05,398.321,522.167z"/>
		<path fill="#FFFFFF" d="M382.27,843.434"/>
		<path fill="#FFFFFF" d="M422.007,498.104c-0.433,0.065-1.176,0.31-1.256,0.177c-2.884-4.96-9.924-7.662-8.473-15.957
			c1.376,1.972,2.284,3.271,3.411,4.884c2.524-2.732,4.778-5.169,7.02-7.601c0.633,0.142,1.262,0.29,1.889,0.433
			c-0.251,2.938-0.353,5.904-0.806,8.814c-0.49,3.175-1.311,6.288-1.982,9.431C421.811,498.28,422.007,498.104,422.007,498.104z"/>
		<path fill="#FFFFFF" d="M416.562,466.208c-1.042,2.085-1.842,4.369-3.237,6.187c-0.677,0.88-2.478,0.895-3.776,1.3
			c-0.397-1.536-1.594-3.911-1.038-4.444c1.968-1.875,4.542-3.118,6.879-4.6C415.783,465.167,416.175,465.688,416.562,466.208z"/>
		<path fill="#FFFFFF" d="M584.023,278.469c-1.945-5.755-3.896-11.511-5.851-17.264c0.642-0.277,1.283-0.554,1.934-0.829
			c4.544,4.714,2.537,12.121,5.787,17.367C585.271,277.983,584.645,278.226,584.023,278.469z"/>
		<path fill="#FFFFFF" d="M311.729,385.467c-1.447-2.189-2.914-4.359-4.341-6.562c-2.307-3.574-2.293-3.581,2.517-7.737
			c0.642,5.146,1.218,9.764,1.784,14.404C311.67,385.598,311.729,385.467,311.729,385.467z"/>
	</g>
</g>
</svg>
